<svg width="128" height="128" viewBox="0 0 128 128" fill="none" xmlns="http://www.w3.org/2000/svg">
<g clip-path="url(#clip0_3_22)">
<rect width="128" height="128" rx="20" fill="black"/>
<path fill-rule="evenodd" clip-rule="evenodd" d="M53.2593 149.473C42.9891 149.466 37.5362 147.848 30.152 142.616C24.622 138.698 20.8653 131.862 20.8653 125.718C20.8653 124.305 21.1496 121.491 21.4966 119.465C22.5134 113.538 20.8396 111.17 14.9755 110.24C9.99111 109.449 1.61041 112.04 -3.52927 115.96C-5.84557 117.727 -8.7814 117.814 -10.4305 116.164C-11.9142 114.681 -11.8034 111.213 -10.1687 107.939C-8.83547 105.269 -6.92664 103.121 -7.72658 105.19C-8.63576 107.544 -9.27239 111.736 -8.9281 113.108C-8.39052 115.249 -6.56361 114.984 -2.34328 112.154C2.8387 108.678 6.32495 107.479 12.0306 107.21C16.4999 107 17.0632 107.093 19.7944 108.496C22.1905 109.728 22.9814 110.498 24.0389 112.632L25.3389 115.255L24.4222 120.664C23.9184 123.639 23.6646 126.854 23.8579 127.809L24.2102 129.545L27.4544 126.738C30.8582 123.794 35.4812 117.968 36.3357 115.548L36.838 114.125L34.4515 115.181C30.394 116.976 30.1166 116.115 33.8663 113.365C37.2942 110.852 40.1459 108.013 41.8079 105.461C42.5554 104.312 42.7888 104.231 43.5454 104.859C44.5638 105.704 45.6812 105.114 49.8796 101.51L52.3892 99.3558L50.5735 97.3457C47.559 94.0092 46.1166 91.4502 45.1319 87.6908C44.3073 84.5422 44.279 83.7074 44.8936 80.7297C45.9645 75.5443 46.5315 75.1711 46.5503 79.639C46.5781 86.3735 49.2847 92.391 54.1888 96.6222C57.039 99.0816 60.0594 100.619 65.689 102.476C68.1076 103.274 70.939 104.512 71.9804 105.228C73.0218 105.944 74.7775 107.156 75.8816 107.923C77.7578 109.226 78.1883 109.3 82.4407 109.053C86.9684 108.79 92.2617 107.283 92.25 106.261C92.2387 105.302 89.032 103.82 86.2541 103.492C82.642 103.064 83.3001 102.245 87.2565 102.245C90.8043 102.245 92.5461 102.777 95.3737 104.722L97.3302 106.068L99.5443 104.938C103.451 102.944 104.93 98.5879 104.154 91.3501L103.791 87.9569L100.905 86.7606C96.1731 84.7993 92.1172 79.3242 92.0904 74.8611L92.0786 72.912L88.1485 72.7134C84.9509 72.5516 83.7991 72.2373 81.9701 71.0272C79.1944 69.19 77.6266 66.7124 77.6239 64.1583C77.6218 62.4716 77.3926 62.1209 75.8816 61.4976C73.2247 60.402 69.9286 57.0779 68.6601 54.2158C68.0337 52.8011 66.9403 50.3187 66.2314 48.699C65.5225 47.0792 64.2727 44.962 63.4546 43.9944C61.8012 42.0394 59.1304 40.4496 58.3304 40.9444C58.0445 41.1211 57.8095 42.7575 57.8084 44.5807C57.8062 48.4275 56.6208 50.8564 54.1128 52.1532C51.6621 53.4207 48.5084 53.2209 46.7302 51.6858L45.2277 50.3884L47.4016 50.9661C51.6054 52.082 54.9845 50.0339 55.5194 46.0458L55.839 43.6613L53.7578 45.377C52.613 46.3205 51.5293 47.0926 51.3494 47.0926C50.7422 47.0926 49.6612 37.9828 50.0295 35.9694C50.4857 33.4737 52.6837 29.6248 54.0791 28.8778C55.4011 28.1704 55.4134 28.5956 54.123 30.4108C52.3881 32.8509 51.7494 35.9464 52.1697 39.8735L52.5552 43.4739L55.2431 40.8657C58.2774 37.9212 59.4168 35.7237 59.4168 32.8161C59.4168 30.6132 57.7243 23.0048 57.2328 23C56.3563 22.9914 51.7365 26.5555 50.3412 28.3177C48.2679 30.935 47.6056 32.7497 47.4664 36.1933C47.3604 38.809 47.2067 39.1014 45.1458 40.5942C43.7515 41.6041 42.4306 43.2432 41.5595 45.0444L40.1802 47.8958L40.1609 45.8707C40.1331 43.0118 41.2939 40.5835 43.5952 38.6864L45.5763 37.0532L43.5283 36.6752C42.4017 36.4674 39.6726 35.5555 37.4639 34.6485C34.1876 33.3028 32.6594 32.9917 29.1646 32.9569C24.0223 32.9055 21.9582 33.8276 17.9204 37.978C14.2398 41.7615 12.618 42.6177 8.34623 43.0316C3.65632 43.4863 1.67359 44.3323 -2.9617 47.8599C-8.66841 52.2025 -13.0023 54.029 -19.4265 54.799C-58.9534 59.5421 -111.836 189.106 53.2593 149.473ZM69.6239 27.9605C67.0602 30.044 65.6622 31.7206 64.163 34.5092C63.0546 36.5708 62.1529 38.4984 62.1594 38.7929C62.1663 39.0874 63.0075 40.0234 64.0291 40.8732L65.8871 42.418L67.7724 41.4087C73.2778 38.462 74.6961 35.6433 74.0691 28.8987C73.8769 26.8307 73.5738 25.1435 73.395 25.1494C73.2167 25.1553 71.5199 26.42 69.6239 27.9605ZM114.056 50.9747C111.657 58.9911 104.593 67.581 97.433 71.1889C94.4801 72.6769 94.132 73.1626 94.5545 75.2043C95.356 79.0811 97.9893 82.3795 101.895 84.3993L103.551 85.256L106.201 82.3741C112.305 75.7355 116.8 61.7771 115.88 52.3133C115.687 50.3252 115.351 48.699 115.133 48.699C114.915 48.699 114.43 49.7228 114.056 50.9747ZM89.5503 53.6954C87.7325 56.7352 83.8452 60.6419 81.6365 61.648C78.8404 62.9219 80.5704 67.7844 84.3876 69.379C86.5898 70.2995 89.6274 70.3343 90.3561 69.4481C91.495 68.0629 92.7088 62.4105 92.7265 58.409C92.7452 54.1221 92.2676 50.8408 91.6256 50.8408C91.4232 50.8408 90.4894 52.1254 89.5503 53.6954ZM35.2419 64.0576C34.7535 65.4386 34.5324 68.6192 34.5597 73.8657C34.5988 81.2914 34.6828 81.8751 36.499 87.2522C37.5437 90.3445 38.7961 93.8384 39.2828 95.0164L40.1673 97.1582L38.2564 95.033C35.9797 92.5024 33.4396 87.521 32.3639 83.4799C30.6997 77.2252 31.64 67.718 34.3632 63.2619C35.7382 61.013 36.1773 61.4108 35.2419 64.0576ZM20.5339 75.7398C25.9959 86.0988 27.5856 92.8199 26.0195 98.9322C25.0535 102.703 23.7926 104.922 22.6151 104.922C22.0299 104.922 21.911 104.595 22.1777 103.718C23.8097 98.3497 23.9709 93.6124 22.6901 88.668C22.2216 86.8586 20.6319 82.7276 19.1578 79.488C15.8354 72.1848 13.9025 66.4083 13.911 63.8054C13.9175 61.9201 14.008 62.025 15.6732 65.8337C16.6386 68.0425 18.8258 72.5002 20.5339 75.7398ZM74.4006 76.8857L76.0808 78.2993L74.5757 79.292C73.7479 79.8377 72.6663 80.2858 72.1726 80.2875C71.0664 80.2923 69.0547 77.8292 69.0547 76.4707C69.0547 74.8852 72.3252 75.1395 74.4006 76.8857ZM67.6123 81.7696C69.142 83.4461 72.3054 84.2269 74.7888 83.5415C77.3921 82.8223 77.6207 83.1939 75.4067 84.5438C70.9631 87.2533 65.5225 84.7548 64.9784 79.7552L64.7161 77.3462L65.6119 78.9525C66.1045 79.8361 67.0051 81.104 67.6123 81.7696ZM94.7173 91.7838C96.3504 92.6282 96.8976 93.5771 96.8976 95.5642C96.8976 97.3537 96.0907 97.6284 95.3849 96.0793C94.9448 95.1133 94.2118 94.6742 92.6098 94.4183C90.6511 94.105 88.866 92.6738 88.866 91.4165C88.866 90.6968 93.1334 90.9646 94.7173 91.7838Z" fill="white"/>
</g>
<defs>
<clipPath id="clip0_3_22">
<rect width="128" height="128" rx="20" fill="white"/>
</clipPath>
</defs>
</svg>
