<svg width="128" height="128" viewBox="0 0 128 128" fill="none" xmlns="http://www.w3.org/2000/svg">
<g clip-path="url(#clip0_6_43)">
<rect width="128" height="128" rx="20" fill="#D0D6E0"/>
<path fill-rule="evenodd" clip-rule="evenodd" d="M46.1899 155.305C35.7446 155.298 30.1988 153.643 22.6887 148.294C17.0644 144.288 13.2437 137.299 13.2437 131.018C13.2437 129.573 13.5329 126.696 13.8858 124.625C14.9199 118.565 13.2176 116.144 7.2535 115.193C2.18413 114.385 -6.33941 117.033 -11.5667 121.041C-13.9225 122.848 -16.9084 122.936 -18.5856 121.25C-20.0946 119.733 -19.9819 116.188 -18.3193 112.841C-16.9634 110.111 -15.022 107.914 -15.8356 110.03C-16.7602 112.436 -17.4077 116.723 -17.0576 118.125C-16.5108 120.315 -14.6528 120.044 -10.3605 117.15C-5.09019 113.596 -1.54451 112.371 4.25838 112.096C8.80387 111.881 9.37675 111.976 12.1546 113.41C14.5915 114.669 15.3958 115.457 16.4713 117.639L17.7935 120.32L16.8613 125.85C16.3488 128.892 16.0907 132.18 16.2873 133.156L16.6456 134.93L19.9451 132.061C23.4069 129.05 28.1087 123.095 28.9778 120.62L29.4886 119.166L27.0615 120.245C22.9348 122.08 22.6527 121.199 26.4663 118.388C29.9526 115.818 32.8529 112.916 34.5433 110.307C35.3035 109.132 35.5409 109.05 36.3104 109.692C37.3462 110.556 38.4826 109.952 42.7526 106.268L45.3049 104.065L43.4583 102.01C40.3924 98.599 38.9254 95.9827 37.9239 92.139C37.0853 88.92 37.0564 88.0666 37.6816 85.0222C38.7707 79.7207 39.3474 79.3391 39.3665 83.907C39.3948 90.7923 42.1475 96.9445 47.1352 101.27C50.0339 103.785 53.1058 105.357 58.8314 107.255C61.2912 108.071 64.1709 109.337 65.2301 110.069C66.2892 110.801 68.0749 112.04 69.1978 112.824C71.1059 114.157 71.5437 114.232 75.8687 113.98C80.4735 113.71 85.8571 112.17 85.8451 111.125C85.8337 110.145 82.5723 108.63 79.7471 108.294C76.0734 107.856 76.7427 107.019 80.7665 107.019C84.3748 107.019 86.1463 107.563 89.0221 109.551L91.012 110.928L93.2638 109.772C97.2374 107.734 98.741 103.28 97.9525 95.8803L97.5833 92.4111L94.648 91.1881C89.8352 89.1828 85.7101 83.5851 85.6828 79.0221L85.6709 77.0294L81.6737 76.8263C78.4216 76.661 77.2502 76.3397 75.39 75.1024C72.567 73.2241 70.9725 70.6911 70.9698 68.0797C70.9676 66.3553 70.7345 65.9967 69.1978 65.3595C66.4956 64.2394 63.1433 60.8408 61.8532 57.9147C61.2161 56.4683 60.1041 53.9304 59.3831 52.2743C58.662 50.6183 57.391 48.4537 56.5589 47.4644C54.8773 45.4657 52.161 43.8403 51.3474 44.3462C51.0566 44.5268 50.8176 46.1998 50.8165 48.0639C50.8143 51.9968 49.6086 54.48 47.0579 55.8059C44.5654 57.1017 41.358 56.8975 39.5494 55.328L38.0214 54.0015L40.2323 54.5922C44.5077 55.7331 47.9444 53.6391 48.4885 49.5617L48.8136 47.1239L46.6968 48.8779C45.5326 49.8426 44.4304 50.632 44.2474 50.632C43.6299 50.632 42.5304 41.3182 42.905 39.2598C43.369 36.7081 45.6045 32.7731 47.0236 32.0094C48.3681 31.2862 48.3806 31.7209 47.0682 33.5767C45.3038 36.0715 44.6542 39.2363 45.0817 43.2513L45.4738 46.9323L48.2075 44.2657C51.2935 41.2553 52.4524 39.0085 52.4524 36.0359C52.4524 33.7837 50.731 26.0049 50.2311 26C49.3396 25.9913 44.6411 29.6351 43.222 31.4367C41.1134 34.1127 40.4398 35.968 40.2982 39.4886C40.1904 42.1629 40.0341 42.4618 37.9381 43.9881C36.52 45.0206 35.1766 46.6964 34.2906 48.538L32.8878 51.4531L32.8682 49.3827C32.8399 46.4599 34.0205 43.9772 36.361 42.0376L38.3759 40.3678L36.293 39.9813C35.1472 39.7689 32.3716 38.8366 30.1252 37.9092C26.793 36.5335 25.2389 36.2154 21.6845 36.1798C16.4545 36.1273 14.3552 37.07 10.2486 41.3133C6.50526 45.1816 4.85577 46.0569 0.511222 46.4801C-4.25863 46.9449 -6.27516 47.8099 -10.9895 51.4165C-16.7934 55.8563 -21.2012 57.7236 -27.7349 58.5109C-67.9355 63.3602 -121.72 195.825 46.1899 155.305ZM62.8334 31.0716C60.226 33.2017 58.8042 34.9158 57.2794 37.7669C56.1521 39.8746 55.2351 41.8454 55.2416 42.1465C55.2487 42.4476 56.1042 43.4045 57.1432 44.2733L59.0329 45.8527L60.9503 44.8208C66.5495 41.8082 67.9921 38.9264 67.3544 32.0307C67.1589 29.9165 66.8507 28.1915 66.6688 28.1975C66.4874 28.2035 64.7617 29.4966 62.8334 31.0716ZM108.023 54.601C105.583 62.7968 98.3985 71.579 91.1165 75.2678C88.1133 76.7891 87.7593 77.2856 88.1889 79.3731C89.0041 83.3366 91.6823 86.7089 95.6544 88.7739L97.3393 89.6498L100.034 86.7034C106.242 79.9161 110.813 65.6452 109.878 55.9696C109.682 53.9369 109.34 52.2743 109.118 52.2743C108.897 52.2743 108.403 53.321 108.023 54.601ZM83.0994 57.3826C81.2506 60.4904 77.2971 64.4846 75.0507 65.5133C72.207 66.8157 73.9665 71.7871 77.8487 73.4174C80.0885 74.3584 83.1778 74.394 83.919 73.488C85.0773 72.0717 86.3118 66.2929 86.3298 62.2018C86.3488 57.8189 85.8631 54.4641 85.2102 54.4641C85.0043 54.4641 84.0546 55.7774 83.0994 57.3826ZM27.8653 67.9768C27.3687 69.3887 27.1437 72.6405 27.1715 78.0044C27.2113 85.5965 27.2967 86.1932 29.1439 91.6907C30.2064 94.8522 31.4801 98.4243 31.9751 99.6287L32.8747 101.819L30.9312 99.6457C28.6157 97.0584 26.0323 91.9655 24.9383 87.8339C23.2458 81.4391 24.202 71.7192 26.9717 67.1633C28.3701 64.864 28.8167 65.2708 27.8653 67.9768ZM12.9066 79.9205C18.4617 90.5115 20.0785 97.3831 18.4857 103.632C17.5033 107.487 16.2209 109.757 15.0234 109.757C14.4281 109.757 14.3072 109.421 14.5784 108.525C16.2383 103.037 16.4022 98.1933 15.0996 93.1381C14.6231 91.2883 13.0063 87.0647 11.5071 83.7527C8.12806 76.286 6.16218 70.3801 6.17089 67.719C6.17743 65.7914 6.26946 65.8987 7.96306 69.7927C8.94491 72.0509 11.1695 76.6084 12.9066 79.9205ZM67.6915 81.0921L69.4003 82.5373L67.8696 83.5523C67.0277 84.1101 65.9276 84.5684 65.4255 84.57C64.3005 84.5749 62.2545 82.0567 62.2545 80.6678C62.2545 79.0468 65.5807 79.3068 67.6915 81.0921ZM60.7875 86.0853C62.3433 87.7994 65.5606 88.5976 68.0863 87.8969C70.734 87.1616 70.9665 87.5416 68.7147 88.9217C64.1954 91.6918 58.662 89.1374 58.1088 84.0258L57.8419 81.5629L58.753 83.2052C59.254 84.1085 60.1699 85.4049 60.7875 86.0853ZM88.3545 96.3237C90.0154 97.1871 90.572 98.1572 90.572 100.189C90.572 102.018 89.7513 102.299 89.0335 100.715C88.5859 99.7278 87.8404 99.2789 86.2111 99.0172C84.2191 98.6969 82.4035 97.2336 82.4035 95.9482C82.4035 95.2124 86.7437 95.4861 88.3545 96.3237Z" fill="#08090A"/>
</g>
<defs>
<clipPath id="clip0_6_43">
<rect width="128" height="128" rx="20" fill="white"/>
</clipPath>
</defs>
</svg>
